<svg width="512" height="512" viewBox="0 0 512 512" fill="none" xmlns="http://www.w3.org/2000/svg">
<rect width="512" height="512" fill="white"/>
<path fill-rule="evenodd" clip-rule="evenodd" d="M463 255.999C463 370.322 370.32 463 255.998 463C141.679 463 49 370.32 49 255.999C49 141.679 141.679 49 255.998 49C370.32 49 463 141.677 463 255.999ZM439.961 255.999C439.961 154.399 357.6 72.0378 255.998 72.0378C154.399 72.0378 72.0379 154.399 72.0379 255.999C72.0379 357.599 154.399 439.961 255.998 439.961C357.599 439.961 439.961 357.6 439.961 255.999Z" fill="white"/>
<path fill-rule="evenodd" clip-rule="evenodd" d="M354.916 313.5C354.916 332.554 339.429 348 320.324 348C309.544 348 300.203 341.905 293.574 334.44C284.328 324.03 287.215 321.79 268.108 316.36C264.752 315.084 261.97 312.822 266.793 311.072C279.105 306.966 284.286 305.076 290.908 295.343C297.407 285.793 307.9 279 320.324 279C339.429 279 354.916 294.447 354.916 313.5Z" fill="#1D1D1D"/>
<path fill-rule="evenodd" clip-rule="evenodd" d="M164.804 194.499C164.804 215.763 180.292 233 199.396 233C210.177 233 219.517 226.199 226.147 217.868C235.392 206.251 232.505 203.751 251.612 197.692C254.968 196.267 257.751 193.743 252.928 191.792C240.616 187.207 235.435 185.1 228.811 174.237C222.313 163.579 211.82 156 199.396 156C180.292 156 164.804 173.237 164.804 194.499Z" fill="#1D1D1D"/>
<path fill-rule="evenodd" clip-rule="evenodd" d="M236.526 311.713C236.526 331.753 220.47 348 200.664 348C180.859 348 164.804 331.753 164.804 311.713C164.804 291.672 180.859 275.426 200.664 275.426C218.806 275.426 228.354 271.812 242.763 260.877C254.946 249.67 267.773 237.663 276.825 223.619C283.097 210.529 283.194 207.003 283.194 192.286C283.194 172.246 299.25 156 319.056 156C338.861 156 354.916 172.246 354.916 192.286C354.916 212.328 338.861 228.574 319.056 228.574C302.2 228.574 299.922 227.603 283.909 237.23C270.518 248.22 260.36 258.041 248.911 271.344C239.129 287.232 236.526 292.047 236.526 311.713Z" fill="#1D1D1D"/>
</svg>
