<svg width="512" height="512" viewBox="0 0 512 512" fill="none" xmlns="http://www.w3.org/2000/svg">
<rect width="512" height="512" fill="black"/>
<path fill-rule="evenodd" clip-rule="evenodd" d="M255.999 49C370.322 49 463 141.68 463 256.002C463 370.321 370.32 463 255.999 463C141.679 463 49 370.321 49 256.002C49 141.68 141.677 49 255.999 49ZM255.999 72.0391C154.399 72.0391 72.0379 154.4 72.0379 256.002C72.0379 357.601 154.399 439.962 255.999 439.962C357.6 439.962 439.961 357.601 439.961 256.002C439.961 154.4 357.6 72.0391 255.999 72.0391Z" fill="white"/>
<path fill-rule="evenodd" clip-rule="evenodd" d="M313.5 157.084C332.554 157.084 348 172.571 348 191.676C348 202.456 341.905 211.797 334.44 218.426C324.03 227.672 321.79 224.785 316.36 243.892C315.084 247.248 312.822 250.03 311.072 245.207C306.966 232.895 305.076 227.714 295.343 221.092C285.793 214.593 279 204.1 279 191.676C279 172.571 294.447 157.084 313.5 157.084Z" fill="#00FF47"/>
<path fill-rule="evenodd" clip-rule="evenodd" d="M194.499 347.196C215.763 347.196 233 331.708 233 312.604C233 301.823 226.199 292.483 217.868 285.853C206.251 276.608 203.751 279.495 197.692 260.388C196.267 257.032 193.743 254.249 191.792 259.072C187.207 271.384 185.1 276.565 174.237 283.189C163.579 289.687 156 300.18 156 312.604C156 331.708 173.237 347.196 194.499 347.196Z" fill="#00FF47"/>
<path fill-rule="evenodd" clip-rule="evenodd" d="M311.713 275.474C331.753 275.474 348 291.53 348 311.336C348 331.141 331.753 347.196 311.713 347.196C291.672 347.196 275.426 331.141 275.426 311.336C275.426 293.194 271.812 283.646 260.877 269.237C249.67 257.054 237.663 244.227 223.619 235.175C210.529 228.903 207.003 228.806 192.286 228.806C172.246 228.806 156 212.75 156 192.944C156 173.139 172.246 157.084 192.286 157.084C212.328 157.084 228.574 173.139 228.574 192.944C228.574 209.8 227.603 212.078 237.23 228.091C248.22 241.482 258.041 251.64 271.344 263.089C287.232 272.871 292.047 275.474 311.713 275.474Z" fill="#00FF47"/>
</svg>
