<svg width="85" height="67" viewBox="0 0 85 67" fill="none" xmlns="http://www.w3.org/2000/svg">
<rect width="85" height="67" fill="black"/>
<path fill-rule="evenodd" clip-rule="evenodd" d="M41.9999 7C56.9115 7 69 18.1932 69 32.0002C69 45.8069 56.9113 57 41.9999 57C27.0886 57 15 45.8069 15 32.0002C15 18.1932 27.0883 7 41.9999 7ZM41.9999 9.7825C28.7477 9.7825 18.0049 19.7295 18.0049 32.0002C18.0049 44.2707 28.7477 54.2176 41.9999 54.2176C55.2521 54.2176 65.995 44.2707 65.995 32.0002C65.995 19.7295 55.2521 9.7825 41.9999 9.7825Z" fill="white"/>
<path fill-rule="evenodd" clip-rule="evenodd" d="M49.5 20C51.9853 20 54 21.878 54 24.1946C54 25.5019 53.2051 26.6346 52.2313 27.4385C50.8735 28.5596 50.5814 28.2095 49.873 30.5265C49.7066 30.9334 49.4116 31.2708 49.1833 30.6859C48.6477 29.1929 48.4012 28.5647 47.1317 27.7617C45.886 26.9736 45 25.7012 45 24.1946C45 21.878 47.0148 20 49.5 20Z" fill="#00FF47"/>
<path fill-rule="evenodd" clip-rule="evenodd" d="M33.9999 43C36.7614 43 39 41.122 39 38.8054C39 37.498 38.1167 36.3654 37.0348 35.5615C35.5261 34.4405 35.2014 34.7905 34.4146 32.4736C34.2295 32.0667 33.9017 31.7292 33.6483 32.3141C33.0529 33.807 32.7792 34.4352 31.3684 35.2384C29.9843 36.0264 29 37.2989 29 38.8054C29 41.122 31.2386 43 33.9999 43Z" fill="#00FF47"/>
<path fill-rule="evenodd" clip-rule="evenodd" d="M49.2751 34.323C51.8845 34.323 54 36.2655 54 38.6616C54 41.0576 51.8845 43 49.2751 43C46.6656 43 44.5502 41.0576 44.5502 38.6616C44.5502 36.4668 44.0797 35.3116 42.6558 33.5684C41.1966 32.0945 39.6331 30.5426 37.8045 29.4475C36.1002 28.6888 35.6411 28.677 33.7248 28.677C31.1154 28.677 29 26.7345 29 24.3384C29 21.9424 31.1154 20 33.7248 20C36.3343 20 38.4498 21.9424 38.4498 24.3384C38.4498 26.3776 38.3233 26.6533 39.5768 28.5905C41.0078 30.2106 42.2866 31.4395 44.0187 32.8246C46.0875 34.0081 46.7145 34.323 49.2751 34.323Z" fill="#00FF47"/>
</svg>
