<svg width="801" height="188" viewBox="0 0 801 188" fill="none" xmlns="http://www.w3.org/2000/svg">
<path d="M280.68 136.94H205.62C206.1 143.9 209.28 149.54 215.16 153.86C221.04 158.06 227.76 160.16 235.32 160.16C247.32 160.16 256.44 156.38 262.68 148.82L274.2 161.42C263.88 172.1 250.44 177.44 233.88 177.44C220.44 177.44 208.98 173 199.5 164.12C190.14 155.12 185.46 143.12 185.46 128.12C185.46 113 190.26 101 199.86 92.12C209.46 83.24 220.74 78.8 233.7 78.8C246.78 78.8 257.88 82.76 267 90.68C276.12 98.48 280.68 109.28 280.68 123.08V136.94ZM205.62 121.1H260.52C260.52 113.06 258 106.88 252.96 102.56C247.92 98.24 241.68 96.08 234.24 96.08C226.92 96.08 220.32 98.36 214.44 102.92C208.56 107.36 205.62 113.42 205.62 121.1ZM309.15 80.24L329.67 111.74L350.91 80.24H374.85L341.37 127.04L376.29 176H351.45L328.59 144.14L306.27 176H282.69L316.71 127.22L284.49 80.24H309.15ZM427.701 177.44C414.381 177.44 402.921 172.94 393.321 163.94C383.721 154.82 378.921 142.94 378.921 128.3C378.921 113.66 383.901 101.78 393.861 92.66C403.941 83.42 416.181 78.8 430.581 78.8C444.981 78.8 457.161 83.78 467.121 93.74L455.241 108.32C446.961 101.12 438.621 97.52 430.221 97.52C421.821 97.52 414.501 100.34 408.261 105.98C402.141 111.5 399.081 118.7 399.081 127.58C399.081 136.34 402.141 143.78 408.261 149.9C414.381 156.02 421.881 159.08 430.761 159.08C439.761 159.08 448.221 155 456.141 146.84L468.021 159.8C456.381 171.56 442.941 177.44 427.701 177.44ZM530.152 99.14C520.192 99.14 512.692 102.38 507.652 108.86C502.612 115.34 500.092 124.04 500.092 134.96V176H479.932V80.24H500.092V99.5C503.332 93.5 507.712 88.58 513.232 84.74C518.872 80.9 524.812 78.92 531.052 78.8L531.232 99.14C530.872 99.14 530.512 99.14 530.152 99.14ZM564.795 150.8C570.555 156.56 577.815 159.44 586.575 159.44C595.335 159.44 602.535 156.56 608.175 150.8C613.935 144.92 616.815 137.36 616.815 128.12C616.815 118.88 613.935 111.38 608.175 105.62C602.535 99.74 595.335 96.8 586.575 96.8C577.815 96.8 570.555 99.74 564.795 105.62C559.155 111.38 556.335 118.88 556.335 128.12C556.335 137.36 559.155 144.92 564.795 150.8ZM622.575 163.22C612.975 172.7 600.975 177.44 586.575 177.44C572.175 177.44 560.175 172.7 550.575 163.22C540.975 153.62 536.175 141.92 536.175 128.12C536.175 114.32 540.975 102.68 550.575 93.2C560.175 83.6 572.175 78.8 586.575 78.8C600.975 78.8 612.975 83.6 622.575 93.2C632.175 102.68 636.975 114.32 636.975 128.12C636.975 141.92 632.175 153.62 622.575 163.22ZM695.716 176H672.676L639.556 80.24H660.436L684.196 152.6L707.956 80.24H728.836L752.596 152.6L776.356 80.24H797.236L764.116 176H741.076L718.396 110.48L695.716 176Z" fill="black"/>
<path fill-rule="evenodd" clip-rule="evenodd" d="M143.481 0.0240336C161.993 0.0240336 177 14.935 177 33.3289C177 43.7078 171.078 52.7011 163.825 59.084C153.712 67.9861 151.536 65.2058 146.26 83.6027C145.02 86.8336 142.822 89.5119 141.122 84.8682C137.132 73.0142 135.297 68.0264 125.84 61.65C116.561 55.393 109.962 45.2907 109.962 33.3289C109.962 14.935 124.969 0.0240336 143.481 0.0240336Z" fill="black"/>
<path fill-rule="evenodd" clip-rule="evenodd" d="M33.5177 175.446C52.03 175.446 67.0367 160.535 67.0367 142.142C67.0367 131.762 61.1156 122.769 53.8626 116.386C43.7487 107.485 41.5724 110.264 36.2975 91.8682C35.0565 88.6373 32.8591 85.958 31.1599 90.6016C27.1692 102.456 25.3343 107.443 15.8771 113.82C6.59814 120.077 0 130.18 0 142.142C0 160.535 15.0068 175.446 33.5177 175.446Z" fill="black"/>
<path fill-rule="evenodd" clip-rule="evenodd" d="M143.483 109.602C161.935 109.602 176.895 124.466 176.895 142.802C176.895 161.137 161.935 176 143.483 176C125.029 176 110.071 161.137 110.071 142.802C110.071 126.007 106.743 117.167 96.6743 103.828C86.3553 92.5489 75.2993 80.6738 62.3681 72.2938C50.3161 66.488 47.0692 66.3978 33.5187 66.3978C15.0658 66.3978 0.107422 51.5339 0.107422 33.1984C0.107422 14.8632 15.0658 3.20113e-06 33.5187 3.20113e-06C51.972 3.20113e-06 66.9313 14.8632 66.9313 33.1984C66.9313 48.8024 66.0366 50.9122 74.9011 65.7357C85.0205 78.1329 94.0638 87.5374 106.312 98.1363C120.942 107.192 125.376 109.602 143.483 109.602Z" fill="black"/>
</svg>
