<svg width="547" height="133" viewBox="0 0 547 133" fill="none" xmlns="http://www.w3.org/2000/svg">
<path d="M195.623 87.9249H144.935C145.259 92.3937 147.406 96.015 151.377 98.7887C155.348 101.485 159.886 102.834 164.991 102.834C173.095 102.834 179.254 100.407 183.468 95.5527L191.247 103.643C184.278 110.5 175.202 113.929 164.019 113.929C154.943 113.929 147.204 111.078 140.802 105.376C134.481 99.5977 131.32 91.8929 131.32 82.2619C131.32 72.5538 134.562 64.849 141.045 59.1474C147.528 53.4458 155.145 50.595 163.897 50.595C172.73 50.595 180.226 53.1376 186.385 58.2228C192.544 63.2309 195.623 70.1653 195.623 79.0258V87.9249ZM144.935 77.7545H182.009C182.009 72.5923 180.307 68.6243 176.904 65.8506C173.5 63.0768 169.286 61.69 164.262 61.69C159.319 61.69 154.862 63.1539 150.891 66.0817C146.92 68.9325 144.935 72.8235 144.935 77.7545ZM214.849 51.5196L228.707 71.7448L243.05 51.5196H259.217L236.608 81.5684L260.189 113.004H243.415L227.977 92.5478L212.904 113.004H196.981L219.955 81.684L198.196 51.5196H214.849ZM294.908 113.929C285.913 113.929 278.174 111.039 271.691 105.261C265.208 99.4051 261.966 91.7773 261.966 82.3774C261.966 72.9776 265.329 65.3498 272.055 59.4941C278.862 53.5614 287.128 50.595 296.853 50.595C306.577 50.595 314.802 53.7925 321.528 60.1875L313.506 69.5489C307.914 64.926 302.282 62.6146 296.61 62.6146C290.937 62.6146 285.994 64.4252 281.78 68.0465C277.647 71.5907 275.58 76.2136 275.58 81.9152C275.58 87.5397 277.647 92.3167 281.78 96.2461C285.913 100.176 290.977 102.14 296.974 102.14C303.052 102.14 308.765 99.5207 314.114 94.2814L322.136 102.603C314.276 110.153 305.199 113.929 294.908 113.929ZM364.094 63.6547C357.368 63.6547 352.303 65.735 348.899 69.8956C345.496 74.0562 343.794 79.6422 343.794 86.6536V113.004H330.18V51.5196H343.794V63.8859C345.982 60.0334 348.94 56.8745 352.668 54.4089C356.476 51.9434 360.488 50.6721 364.702 50.595L364.823 63.6547C364.58 63.6547 364.337 63.6547 364.094 63.6547ZM387.488 96.824C391.378 100.522 396.281 102.371 402.197 102.371C408.112 102.371 412.975 100.522 416.783 96.824C420.673 93.0486 422.618 88.1946 422.618 82.2619C422.618 76.3291 420.673 71.5136 416.783 67.8153C412.975 64.04 408.112 62.1523 402.197 62.1523C396.281 62.1523 391.378 64.04 387.488 67.8153C383.68 71.5136 381.775 76.3291 381.775 82.2619C381.775 88.1946 383.68 93.0486 387.488 96.824ZM426.508 104.798C420.025 110.885 411.921 113.929 402.197 113.929C392.472 113.929 384.369 110.885 377.886 104.798C371.403 98.6346 368.161 91.1224 368.161 82.2619C368.161 73.4013 371.403 65.9276 377.886 59.8408C384.369 53.677 392.472 50.595 402.197 50.595C411.921 50.595 420.025 53.677 426.508 59.8408C432.991 65.9276 436.232 73.4013 436.232 82.2619C436.232 91.1224 432.991 98.6346 426.508 104.798ZM475.901 113.004H460.341L437.975 51.5196H452.076L468.121 97.9797L484.166 51.5196H498.267L514.312 97.9797L530.357 51.5196H544.458L522.092 113.004H506.533L491.217 70.9358L475.901 113.004Z" fill="white"/>
<path fill-rule="evenodd" clip-rule="evenodd" d="M96.894 0.015564C109.395 0.015564 119.53 9.58947 119.53 21.3996C119.53 28.0635 115.53 33.8379 110.632 37.9361C103.803 43.6519 102.334 41.8667 98.7707 53.6788C97.9333 55.7533 96.4489 57.4729 95.3009 54.4914C92.6064 46.8803 91.3672 43.6778 84.9809 39.5837C78.7147 35.5662 74.2583 29.0799 74.2583 21.3996C74.2583 9.58947 84.3927 0.015564 96.894 0.015564Z" fill="white"/>
<path fill-rule="evenodd" clip-rule="evenodd" d="M22.6348 112.648C35.1363 112.648 45.2705 103.075 45.2705 91.2649C45.2705 84.6003 41.2719 78.8261 36.3739 74.7278C29.5439 69.0128 28.0742 70.7971 24.512 58.9857C23.674 56.9112 22.19 55.1909 21.0426 58.1725C18.3476 65.7838 17.1085 68.9858 10.7219 73.0803C4.45578 77.0977 0 83.5845 0 91.2649C0 103.075 10.1342 112.648 22.6348 112.648Z" fill="white"/>
<path fill-rule="evenodd" clip-rule="evenodd" d="M96.8955 70.372C109.356 70.372 119.459 79.9158 119.459 91.6887C119.459 103.461 109.356 113.004 96.8955 113.004C84.4334 113.004 74.3321 103.461 74.3321 91.6887C74.3321 80.9052 72.0847 75.2293 65.2852 66.6647C58.3167 59.4228 50.8505 51.7981 42.1179 46.4176C33.9791 42.6899 31.7864 42.632 22.6357 42.632C10.1743 42.632 0.0727539 33.0883 0.0727539 21.3157C0.0727539 9.5432 10.1743 0 22.6357 0C35.0973 0 45.1995 9.5432 45.1995 21.3157C45.1995 31.3345 44.5953 32.6891 50.5816 42.2069C57.4153 50.1667 63.5223 56.205 71.7936 63.0103C81.6734 68.8247 84.6677 70.372 96.8955 70.372Z" fill="white"/>
</svg>
