<svg width="588" height="33" viewBox="0 0 588 33" fill="none" xmlns="http://www.w3.org/2000/svg">
<path d="M22.082 2.642H27.038V32H21.662L5.03 10.58V32H0.0740001V2.642H5.03L22.082 24.566V2.642ZM59.1294 22.235H40.3644C40.4844 23.975 41.2794 25.385 42.7494 26.465C44.2194 27.515 45.8994 28.04 47.7894 28.04C50.7894 28.04 53.0694 27.095 54.6294 25.205L57.5094 28.355C54.9294 31.025 51.5694 32.36 47.4294 32.36C44.0694 32.36 41.2044 31.25 38.8344 29.03C36.4944 26.78 35.3244 23.78 35.3244 20.03C35.3244 16.25 36.5244 13.25 38.9244 11.03C41.3244 8.81 44.1444 7.7 47.3844 7.7C50.6544 7.7 53.4294 8.69 55.7094 10.67C57.9894 12.62 59.1294 15.32 59.1294 18.77V22.235ZM40.3644 18.275H54.0894C54.0894 16.265 53.4594 14.72 52.1994 13.64C50.9394 12.56 49.3794 12.02 47.5194 12.02C45.6894 12.02 44.0394 12.59 42.5694 13.73C41.0994 14.84 40.3644 16.355 40.3644 18.275ZM70.7468 8.06L75.8768 15.935L81.1868 8.06H87.1718L78.8018 19.76L87.5318 32H81.3218L75.6068 24.035L70.0268 32H64.1318L72.6368 19.805L64.5818 8.06H70.7468ZM111.005 21.02V8.06H116.045V32H111.005V27.635C110.195 29.105 109.07 30.26 107.63 31.1C106.22 31.94 104.69 32.36 103.04 32.36C100.34 32.36 98.1495 31.535 96.4695 29.885C94.8195 28.235 93.9945 25.85 93.9945 22.73V8.06H99.0345V21.2C99.0345 25.61 100.865 27.815 104.525 27.815C106.265 27.815 107.78 27.245 109.07 26.105C110.36 24.935 111.005 23.24 111.005 21.02ZM142.661 24.845C142.661 27.125 141.836 28.955 140.186 30.335C138.536 31.685 136.421 32.36 133.841 32.36C132.101 32.36 130.286 32.045 128.396 31.415C126.536 30.785 124.886 29.9 123.446 28.76L125.876 24.845C128.666 26.945 131.366 27.995 133.976 27.995C135.116 27.995 136.016 27.74 136.676 27.23C137.336 26.69 137.666 26.015 137.666 25.205C137.666 24.005 136.076 22.925 132.896 21.965C132.656 21.875 132.476 21.815 132.356 21.785C127.376 20.435 124.886 18.185 124.886 15.035C124.886 12.815 125.741 11.045 127.451 9.725C129.191 8.375 131.441 7.7 134.201 7.7C136.961 7.7 139.571 8.51 142.031 10.13L140.141 13.865C138.191 12.575 136.076 11.93 133.796 11.93C132.596 11.93 131.621 12.155 130.871 12.605C130.121 13.025 129.746 13.67 129.746 14.54C129.746 15.32 130.136 15.89 130.916 16.25C131.456 16.52 132.206 16.775 133.166 17.015C134.156 17.255 135.026 17.495 135.776 17.735C136.526 17.975 137.246 18.245 137.936 18.545C138.656 18.845 139.421 19.265 140.231 19.805C141.851 20.885 142.661 22.565 142.661 24.845ZM185.171 2.642V7.304H169.505V15.074H183.575V19.484H169.505V27.338H185.675V32H164.549V2.642H185.171ZM210.755 24.845C210.755 27.125 209.93 28.955 208.28 30.335C206.63 31.685 204.515 32.36 201.935 32.36C200.195 32.36 198.38 32.045 196.49 31.415C194.63 30.785 192.98 29.9 191.54 28.76L193.97 24.845C196.76 26.945 199.46 27.995 202.07 27.995C203.21 27.995 204.11 27.74 204.77 27.23C205.43 26.69 205.76 26.015 205.76 25.205C205.76 24.005 204.17 22.925 200.99 21.965C200.75 21.875 200.57 21.815 200.45 21.785C195.47 20.435 192.98 18.185 192.98 15.035C192.98 12.815 193.835 11.045 195.545 9.725C197.285 8.375 199.535 7.7 202.295 7.7C205.055 7.7 207.665 8.51 210.125 10.13L208.235 13.865C206.285 12.575 204.17 11.93 201.89 11.93C200.69 11.93 199.715 12.155 198.965 12.605C198.215 13.025 197.84 13.67 197.84 14.54C197.84 15.32 198.23 15.89 199.01 16.25C199.55 16.52 200.3 16.775 201.26 17.015C202.25 17.255 203.12 17.495 203.87 17.735C204.62 17.975 205.34 18.245 206.03 18.545C206.75 18.845 207.515 19.265 208.325 19.805C209.945 20.885 210.755 22.565 210.755 24.845ZM229.334 32.36C226.004 32.36 223.139 31.235 220.739 28.985C218.339 26.705 217.139 23.735 217.139 20.075C217.139 16.415 218.384 13.445 220.874 11.165C223.394 8.855 226.454 7.7 230.054 7.7C233.654 7.7 236.699 8.945 239.189 11.435L236.219 15.08C234.149 13.28 232.064 12.38 229.964 12.38C227.864 12.38 226.034 13.085 224.474 14.495C222.944 15.875 222.179 17.675 222.179 19.895C222.179 22.085 222.944 23.945 224.474 25.475C226.004 27.005 227.879 27.77 230.099 27.77C232.349 27.77 234.464 26.75 236.444 24.71L239.414 27.95C236.504 30.89 233.144 32.36 229.334 32.36ZM259.447 12.785C256.957 12.785 255.082 13.595 253.822 15.215C252.562 16.835 251.932 19.01 251.932 21.74V32H246.892V8.06H251.932V12.875C252.742 11.375 253.837 10.145 255.217 9.185C256.627 8.225 258.112 7.73 259.672 7.7L259.717 12.785C259.627 12.785 259.537 12.785 259.447 12.785ZM272.608 25.7C274.048 27.14 275.863 27.86 278.053 27.86C280.243 27.86 282.043 27.14 283.453 25.7C284.893 24.23 285.613 22.34 285.613 20.03C285.613 17.72 284.893 15.845 283.453 14.405C282.043 12.935 280.243 12.2 278.053 12.2C275.863 12.2 274.048 12.935 272.608 14.405C271.198 15.845 270.493 17.72 270.493 20.03C270.493 22.34 271.198 24.23 272.608 25.7ZM287.053 28.805C284.653 31.175 281.653 32.36 278.053 32.36C274.453 32.36 271.453 31.175 269.053 28.805C266.653 26.405 265.453 23.48 265.453 20.03C265.453 16.58 266.653 13.67 269.053 11.3C271.453 8.9 274.453 7.7 278.053 7.7C281.653 7.7 284.653 8.9 287.053 11.3C289.453 13.67 290.653 16.58 290.653 20.03C290.653 23.48 289.453 26.405 287.053 28.805ZM309.838 32H304.078L295.798 8.06H301.018L306.958 26.15L312.898 8.06H318.118L324.058 26.15L329.998 8.06H335.218L326.938 32H321.178L315.508 15.62L309.838 32ZM369.255 27.506C370.963 27.506 372.433 27.226 373.665 26.666C374.897 26.078 376.185 25.154 377.529 23.894L380.721 27.17C377.613 30.614 373.833 32.336 369.381 32.336C364.957 32.336 361.275 30.908 358.335 28.052C355.423 25.196 353.967 21.584 353.967 17.216C353.967 12.848 355.451 9.208 358.419 6.296C361.415 3.384 365.181 1.928 369.717 1.928C374.281 1.928 378.089 3.608 381.141 6.968L377.991 10.412C376.591 9.068 375.261 8.13 374.001 7.598C372.769 7.066 371.313 6.8 369.633 6.8C366.665 6.8 364.173 7.766 362.157 9.698C360.141 11.602 359.133 14.052 359.133 17.048C359.133 20.016 360.127 22.508 362.115 24.524C364.131 26.512 366.511 27.506 369.255 27.506ZM394.034 25.7C395.474 27.14 397.289 27.86 399.479 27.86C401.669 27.86 403.469 27.14 404.879 25.7C406.319 24.23 407.039 22.34 407.039 20.03C407.039 17.72 406.319 15.845 404.879 14.405C403.469 12.935 401.669 12.2 399.479 12.2C397.289 12.2 395.474 12.935 394.034 14.405C392.624 15.845 391.919 17.72 391.919 20.03C391.919 22.34 392.624 24.23 394.034 25.7ZM408.479 28.805C406.079 31.175 403.079 32.36 399.479 32.36C395.879 32.36 392.879 31.175 390.479 28.805C388.079 26.405 386.879 23.48 386.879 20.03C386.879 16.58 388.079 13.67 390.479 11.3C392.879 8.9 395.879 7.7 399.479 7.7C403.079 7.7 406.079 8.9 408.479 11.3C410.879 13.67 412.079 16.58 412.079 20.03C412.079 23.48 410.879 26.405 408.479 28.805ZM425.099 19.04V32H420.059V8.06H425.099V12.425C425.909 10.955 427.019 9.8 428.429 8.96C429.869 8.12 431.414 7.7 433.064 7.7C435.764 7.7 437.939 8.525 439.589 10.175C441.269 11.825 442.109 14.21 442.109 17.33V32H437.069V18.86C437.069 14.45 435.239 12.245 431.579 12.245C429.839 12.245 428.324 12.83 427.034 14C425.744 15.14 425.099 16.82 425.099 19.04ZM457.611 12.11V24.26C457.611 25.4 457.911 26.315 458.511 27.005C459.111 27.665 459.951 27.995 461.031 27.995C462.111 27.995 463.146 27.47 464.136 26.42L466.206 29.975C464.436 31.565 462.471 32.36 460.311 32.36C458.181 32.36 456.351 31.625 454.821 30.155C453.321 28.655 452.571 26.645 452.571 24.125V12.11H449.556V8.06H452.571V0.544997H457.611V8.06H463.911V12.11H457.611ZM485.015 12.785C482.525 12.785 480.65 13.595 479.39 15.215C478.13 16.835 477.5 19.01 477.5 21.74V32H472.46V8.06H477.5V12.875C478.31 11.375 479.405 10.145 480.785 9.185C482.195 8.225 483.68 7.73 485.24 7.7L485.285 12.785C485.195 12.785 485.105 12.785 485.015 12.785ZM511.99 32H507.4V28.805C505.42 31.175 502.765 32.36 499.435 32.36C496.945 32.36 494.875 31.655 493.225 30.245C491.605 28.835 490.795 26.96 490.795 24.62C490.795 22.25 491.665 20.48 493.405 19.31C495.145 18.14 497.5 17.555 500.47 17.555H506.995V16.655C506.995 13.475 505.225 11.885 501.685 11.885C499.465 11.885 497.155 12.695 494.755 14.315L492.505 11.165C495.415 8.855 498.715 7.7 502.405 7.7C505.225 7.7 507.52 8.42 509.29 9.86C511.09 11.27 511.99 13.505 511.99 16.565V32ZM506.95 23.09V21.065H501.28C497.65 21.065 495.835 22.205 495.835 24.485C495.835 25.655 496.285 26.555 497.185 27.185C498.085 27.785 499.33 28.085 500.92 28.085C502.54 28.085 503.95 27.635 505.15 26.735C506.35 25.835 506.95 24.62 506.95 23.09ZM531.877 32.36C528.547 32.36 525.682 31.235 523.282 28.985C520.882 26.705 519.682 23.735 519.682 20.075C519.682 16.415 520.927 13.445 523.417 11.165C525.937 8.855 528.997 7.7 532.597 7.7C536.197 7.7 539.242 8.945 541.732 11.435L538.762 15.08C536.692 13.28 534.607 12.38 532.507 12.38C530.407 12.38 528.577 13.085 527.017 14.495C525.487 15.875 524.722 17.675 524.722 19.895C524.722 22.085 525.487 23.945 527.017 25.475C528.547 27.005 530.422 27.77 532.642 27.77C534.892 27.77 537.007 26.75 538.987 24.71L541.957 27.95C539.047 30.89 535.687 32.36 531.877 32.36ZM555.644 12.11V24.26C555.644 25.4 555.944 26.315 556.544 27.005C557.144 27.665 557.984 27.995 559.064 27.995C560.144 27.995 561.179 27.47 562.169 26.42L564.239 29.975C562.469 31.565 560.504 32.36 558.344 32.36C556.214 32.36 554.384 31.625 552.854 30.155C551.354 28.655 550.604 26.645 550.604 24.125V12.11H547.589V8.06H550.604V0.544997H555.644V8.06H561.944V12.11H555.644ZM587.548 24.845C587.548 27.125 586.723 28.955 585.073 30.335C583.423 31.685 581.308 32.36 578.728 32.36C576.988 32.36 575.173 32.045 573.283 31.415C571.423 30.785 569.773 29.9 568.333 28.76L570.763 24.845C573.553 26.945 576.253 27.995 578.863 27.995C580.003 27.995 580.903 27.74 581.563 27.23C582.223 26.69 582.553 26.015 582.553 25.205C582.553 24.005 580.963 22.925 577.783 21.965C577.543 21.875 577.363 21.815 577.243 21.785C572.263 20.435 569.773 18.185 569.773 15.035C569.773 12.815 570.628 11.045 572.338 9.725C574.078 8.375 576.328 7.7 579.088 7.7C581.848 7.7 584.458 8.51 586.918 10.13L585.028 13.865C583.078 12.575 580.963 11.93 578.683 11.93C577.483 11.93 576.508 12.155 575.758 12.605C575.008 13.025 574.633 13.67 574.633 14.54C574.633 15.32 575.023 15.89 575.803 16.25C576.343 16.52 577.093 16.775 578.053 17.015C579.043 17.255 579.913 17.495 580.663 17.735C581.413 17.975 582.133 18.245 582.823 18.545C583.543 18.845 584.308 19.265 585.118 19.805C586.738 20.885 587.548 22.565 587.548 24.845Z" fill="#00FF47"/>
</svg>
