<svg width="321" height="57" viewBox="0 0 321 57" fill="none" xmlns="http://www.w3.org/2000/svg">
<path d="M82.84 12.04H87.56V40H82.44L66.6 19.6V40H61.88V12.04H66.6L82.84 32.92V12.04ZM110.878 31.32H94.1975C94.3042 32.8667 95.0108 34.12 96.3175 35.08C97.6242 36.0133 99.1175 36.48 100.797 36.48C103.464 36.48 105.491 35.64 106.878 33.96L109.438 36.76C107.144 39.1333 104.158 40.32 100.478 40.32C97.4908 40.32 94.9442 39.3333 92.8375 37.36C90.7575 35.36 89.7175 32.6933 89.7175 29.36C89.7175 26 90.7842 23.3333 92.9175 21.36C95.0508 19.3867 97.5575 18.4 100.438 18.4C103.344 18.4 105.811 19.28 107.837 21.04C109.864 22.7733 110.878 25.1733 110.878 28.24V31.32ZM94.1975 27.8H106.398C106.398 26.0133 105.838 24.64 104.718 23.68C103.598 22.72 102.211 22.24 100.558 22.24C98.9308 22.24 97.4642 22.7467 96.1575 23.76C94.8508 24.7467 94.1975 26.0933 94.1975 27.8ZM115.604 18.72L120.164 25.72L124.884 18.72H130.204L122.764 29.12L130.524 40H125.004L119.924 32.92L114.964 40H109.724L117.284 29.16L110.124 18.72H115.604ZM145.789 30.24V18.72H150.269V40H145.789V36.12C145.069 37.4267 144.069 38.4533 142.789 39.2C141.535 39.9467 140.175 40.32 138.709 40.32C136.309 40.32 134.362 39.5867 132.869 38.12C131.402 36.6533 130.669 34.5333 130.669 31.76V18.72H135.149V30.4C135.149 34.32 136.775 36.28 140.029 36.28C141.575 36.28 142.922 35.7733 144.069 34.76C145.215 33.72 145.789 32.2133 145.789 30.24ZM168.328 33.64C168.328 35.6667 167.595 37.2933 166.128 38.52C164.661 39.72 162.781 40.32 160.488 40.32C158.941 40.32 157.328 40.04 155.648 39.48C153.995 38.92 152.528 38.1333 151.248 37.12L153.408 33.64C155.888 35.5067 158.288 36.44 160.608 36.44C161.621 36.44 162.421 36.2133 163.008 35.76C163.595 35.28 163.888 34.68 163.888 33.96C163.888 32.8933 162.475 31.9333 159.648 31.08C159.435 31 159.275 30.9467 159.168 30.92C154.741 29.72 152.528 27.72 152.528 24.92C152.528 22.9467 153.288 21.3733 154.808 20.2C156.355 19 158.355 18.4 160.808 18.4C163.261 18.4 165.581 19.12 167.768 20.56L166.088 23.88C164.355 22.7333 162.475 22.16 160.448 22.16C159.381 22.16 158.515 22.36 157.848 22.76C157.181 23.1333 156.848 23.7067 156.848 24.48C156.848 25.1733 157.195 25.68 157.888 26C158.368 26.24 159.035 26.4667 159.888 26.68C160.768 26.8933 161.541 27.1067 162.208 27.32C162.875 27.5333 163.515 27.7733 164.128 28.04C164.768 28.3067 165.448 28.68 166.168 29.16C167.608 30.12 168.328 31.6133 168.328 33.64Z" fill="white"/>
<path d="M186.443 12.04C190.683 12.04 193.776 12.8533 195.723 14.48C197.669 16.1067 198.643 18.6133 198.643 22C198.643 25.3867 197.643 27.8667 195.643 29.44C193.669 31.0133 190.629 31.8 186.523 31.8H181.563V40H176.843V12.04H186.443ZM187.043 27.52C189.656 27.52 191.429 27.0267 192.363 26.04C193.323 25.0267 193.803 23.56 193.803 21.64C193.803 19.6933 193.203 18.32 192.003 17.52C190.803 16.72 188.923 16.32 186.363 16.32H181.563V27.52H187.043ZM211.106 22.92C208.893 22.92 207.226 23.64 206.106 25.08C204.986 26.52 204.426 28.4533 204.426 30.88V40H199.946V18.72H204.426V23C205.146 21.6667 206.12 20.5733 207.346 19.72C208.6 18.8667 209.92 18.4267 211.306 18.4L211.346 22.92C211.266 22.92 211.186 22.92 211.106 22.92ZM217.205 34.4C218.485 35.68 220.098 36.32 222.045 36.32C223.991 36.32 225.591 35.68 226.845 34.4C228.125 33.0933 228.765 31.4133 228.765 29.36C228.765 27.3067 228.125 25.64 226.845 24.36C225.591 23.0533 223.991 22.4 222.045 22.4C220.098 22.4 218.485 23.0533 217.205 24.36C215.951 25.64 215.325 27.3067 215.325 29.36C215.325 31.4133 215.951 33.0933 217.205 34.4ZM230.045 37.16C227.911 39.2667 225.245 40.32 222.045 40.32C218.845 40.32 216.178 39.2667 214.045 37.16C211.911 35.0267 210.845 32.4267 210.845 29.36C210.845 26.2933 211.911 23.7067 214.045 21.6C216.178 19.4667 218.845 18.4 222.045 18.4C225.245 18.4 227.911 19.4667 230.045 21.6C232.178 23.7067 233.245 26.2933 233.245 29.36C233.245 32.4267 232.178 35.0267 230.045 37.16ZM240.258 22.32V33.12C240.258 34.1333 240.525 34.9467 241.058 35.56C241.592 36.1467 242.338 36.44 243.298 36.44C244.258 36.44 245.178 35.9733 246.058 35.04L247.898 38.2C246.325 39.6133 244.578 40.32 242.658 40.32C240.765 40.32 239.138 39.6667 237.778 38.36C236.445 37.0267 235.778 35.24 235.778 33V22.32H233.098V18.72H235.778V12.04H240.258V18.72H245.858V22.32H240.258ZM252.817 34.4C254.097 35.68 255.711 36.32 257.657 36.32C259.604 36.32 261.204 35.68 262.457 34.4C263.737 33.0933 264.377 31.4133 264.377 29.36C264.377 27.3067 263.737 25.64 262.457 24.36C261.204 23.0533 259.604 22.4 257.657 22.4C255.711 22.4 254.097 23.0533 252.817 24.36C251.564 25.64 250.937 27.3067 250.937 29.36C250.937 31.4133 251.564 33.0933 252.817 34.4ZM265.657 37.16C263.524 39.2667 260.857 40.32 257.657 40.32C254.457 40.32 251.791 39.2667 249.657 37.16C247.524 35.0267 246.457 32.4267 246.457 29.36C246.457 26.2933 247.524 23.7067 249.657 21.6C251.791 19.4667 254.457 18.4 257.657 18.4C260.857 18.4 263.524 19.4667 265.657 21.6C267.791 23.7067 268.857 26.2933 268.857 29.36C268.857 32.4267 267.791 35.0267 265.657 37.16ZM279.791 40.32C276.831 40.32 274.284 39.32 272.151 37.32C270.018 35.2933 268.951 32.6533 268.951 29.4C268.951 26.1467 270.058 23.5067 272.271 21.48C274.511 19.4267 277.231 18.4 280.431 18.4C283.631 18.4 286.338 19.5067 288.551 21.72L285.911 24.96C284.071 23.36 282.218 22.56 280.351 22.56C278.484 22.56 276.858 23.1867 275.471 24.44C274.111 25.6667 273.431 27.2667 273.431 29.24C273.431 31.1867 274.111 32.84 275.471 34.2C276.831 35.56 278.498 36.24 280.471 36.24C282.471 36.24 284.351 35.3333 286.111 33.52L288.751 36.4C286.164 39.0133 283.178 40.32 279.791 40.32ZM294.758 34.4C296.038 35.68 297.651 36.32 299.598 36.32C301.544 36.32 303.144 35.68 304.398 34.4C305.678 33.0933 306.318 31.4133 306.318 29.36C306.318 27.3067 305.678 25.64 304.398 24.36C303.144 23.0533 301.544 22.4 299.598 22.4C297.651 22.4 296.038 23.0533 294.758 24.36C293.504 25.64 292.878 27.3067 292.878 29.36C292.878 31.4133 293.504 33.0933 294.758 34.4ZM307.598 37.16C305.464 39.2667 302.798 40.32 299.598 40.32C296.398 40.32 293.731 39.2667 291.598 37.16C289.464 35.0267 288.398 32.4267 288.398 29.36C288.398 26.2933 289.464 23.7067 291.598 21.6C293.731 19.4667 296.398 18.4 299.598 18.4C302.798 18.4 305.464 19.4667 307.598 21.6C309.731 23.7067 310.798 26.2933 310.798 29.36C310.798 32.4267 309.731 35.0267 307.598 37.16ZM316.772 40H312.292V10.32H316.772V40Z" fill="#00FF47"/>
<path fill-rule="evenodd" clip-rule="evenodd" d="M26.4999 3.8147e-06C41.1354 3.8147e-06 53 11.8648 53 26.5002C53 41.1353 41.1352 53 26.4999 53C11.8647 53 0 41.1353 0 26.5002C0 11.8648 11.8644 3.8147e-06 26.4999 3.8147e-06ZM26.4999 2.94946C13.4931 2.94946 2.94929 13.4933 2.94929 26.5002C2.94929 39.5069 13.4931 50.0507 26.4999 50.0507C39.5067 50.0507 50.0506 39.5069 50.0506 26.5002C50.0506 13.4933 39.5067 2.94946 26.4999 2.94946Z" fill="white"/>
<path fill-rule="evenodd" clip-rule="evenodd" d="M34.9709 12.8585C37.8231 12.8585 40.1352 15.1706 40.1352 18.0228C40.1352 19.6321 39.2229 21.0266 38.1054 22.0163C36.5472 23.3967 36.2119 22.9656 35.399 25.8182C35.208 26.3192 34.8694 26.7345 34.6075 26.0144C33.9928 24.1763 33.7099 23.4029 32.253 22.4142C30.8234 21.444 29.8066 19.8776 29.8066 18.0228C29.8066 15.1706 32.1188 12.8585 34.9709 12.8585Z" fill="#00FF47"/>
<path fill-rule="evenodd" clip-rule="evenodd" d="M18.0288 40.0593C20.881 40.0593 23.1931 37.7472 23.1931 34.8952C23.1931 33.2857 22.2808 31.8912 21.1634 30.9015C19.6051 29.5213 19.2698 29.9522 18.4571 27.0998C18.2659 26.5988 17.9274 26.1834 17.6656 26.9034C17.0507 28.7415 16.768 29.5149 15.3109 30.5037C13.8813 31.4738 12.8647 33.0404 12.8647 34.8952C12.8647 37.7472 15.1768 40.0593 18.0288 40.0593Z" fill="#00FF47"/>
<path fill-rule="evenodd" clip-rule="evenodd" d="M34.9709 29.8497C37.814 29.8497 40.1188 32.1545 40.1188 34.9975C40.1188 37.8406 37.814 40.1453 34.9709 40.1453C32.1278 40.1453 29.8232 37.8406 29.8232 34.9975C29.8232 32.3934 29.3104 31.0227 27.7592 28.9542C26.1693 27.2054 24.4659 25.364 22.4736 24.0646C20.6168 23.1644 20.1165 23.1504 18.0288 23.1504C15.1857 23.1504 12.8811 20.8456 12.8811 18.0025C12.8811 15.1595 15.1857 12.8548 18.0288 12.8548C20.8719 12.8548 23.1767 15.1595 23.1767 18.0025C23.1767 20.4221 23.0388 20.7492 24.4046 23.0477C25.9637 24.97 27.357 26.4283 29.2441 28.0718C31.4981 29.4759 32.1812 29.8497 34.9709 29.8497Z" fill="#00FF47"/>
</svg>
