<svg width="169" height="57" viewBox="0 0 169 57" fill="none" xmlns="http://www.w3.org/2000/svg">
<path d="M82.84 12.04H87.56V40H82.44L66.6 19.6V40H61.88V12.04H66.6L82.84 32.92V12.04ZM110.878 31.32H94.1975C94.3042 32.8667 95.0108 34.12 96.3175 35.08C97.6242 36.0133 99.1175 36.48 100.797 36.48C103.464 36.48 105.491 35.64 106.878 33.96L109.438 36.76C107.144 39.1333 104.158 40.32 100.478 40.32C97.4908 40.32 94.9442 39.3333 92.8375 37.36C90.7575 35.36 89.7175 32.6933 89.7175 29.36C89.7175 26 90.7842 23.3333 92.9175 21.36C95.0508 19.3867 97.5575 18.4 100.438 18.4C103.344 18.4 105.811 19.28 107.837 21.04C109.864 22.7733 110.878 25.1733 110.878 28.24V31.32ZM94.1975 27.8H106.398C106.398 26.0133 105.838 24.64 104.718 23.68C103.598 22.72 102.211 22.24 100.558 22.24C98.9308 22.24 97.4642 22.7467 96.1575 23.76C94.8508 24.7467 94.1975 26.0933 94.1975 27.8ZM115.604 18.72L120.164 25.72L124.884 18.72H130.204L122.764 29.12L130.524 40H125.004L119.924 32.92L114.964 40H109.724L117.284 29.16L110.124 18.72H115.604ZM145.789 30.24V18.72H150.269V40H145.789V36.12C145.069 37.4267 144.069 38.4533 142.789 39.2C141.535 39.9467 140.175 40.32 138.709 40.32C136.309 40.32 134.362 39.5867 132.869 38.12C131.402 36.6533 130.669 34.5333 130.669 31.76V18.72H135.149V30.4C135.149 34.32 136.775 36.28 140.029 36.28C141.575 36.28 142.922 35.7733 144.069 34.76C145.215 33.72 145.789 32.2133 145.789 30.24ZM168.328 33.64C168.328 35.6667 167.595 37.2933 166.128 38.52C164.661 39.72 162.781 40.32 160.488 40.32C158.941 40.32 157.328 40.04 155.648 39.48C153.995 38.92 152.528 38.1333 151.248 37.12L153.408 33.64C155.888 35.5067 158.288 36.44 160.608 36.44C161.621 36.44 162.421 36.2133 163.008 35.76C163.595 35.28 163.888 34.68 163.888 33.96C163.888 32.8933 162.475 31.9333 159.648 31.08C159.435 31 159.275 30.9467 159.168 30.92C154.741 29.72 152.528 27.72 152.528 24.92C152.528 22.9467 153.288 21.3733 154.808 20.2C156.355 19 158.355 18.4 160.808 18.4C163.261 18.4 165.581 19.12 167.768 20.56L166.088 23.88C164.355 22.7333 162.475 22.16 160.448 22.16C159.381 22.16 158.515 22.36 157.848 22.76C157.181 23.1333 156.848 23.7067 156.848 24.48C156.848 25.1733 157.195 25.68 157.888 26C158.368 26.24 159.035 26.4667 159.888 26.68C160.768 26.8933 161.541 27.1067 162.208 27.32C162.875 27.5333 163.515 27.7733 164.128 28.04C164.768 28.3067 165.448 28.68 166.168 29.16C167.608 30.12 168.328 31.6133 168.328 33.64Z" fill="white"/>
<path fill-rule="evenodd" clip-rule="evenodd" d="M26.4999 2.65244e-06C41.1354 2.65244e-06 53 11.8648 53 26.5002C53 41.1353 41.1352 53 26.4999 53C11.8647 53 0 41.1353 0 26.5002C0 11.8648 11.8644 2.65244e-06 26.4999 2.65244e-06ZM26.4999 2.94945C13.4931 2.94945 2.94929 13.4933 2.94929 26.5002C2.94929 39.5069 13.4931 50.0507 26.4999 50.0507C39.5067 50.0507 50.0506 39.5069 50.0506 26.5002C50.0506 13.4933 39.5067 2.94945 26.4999 2.94945Z" fill="white"/>
<path fill-rule="evenodd" clip-rule="evenodd" d="M34.9709 12.8588C37.8231 12.8588 40.1352 15.1709 40.1352 18.023C40.1352 19.6324 39.2229 21.0269 38.1054 22.0166C36.5472 23.3969 36.2119 22.9658 35.399 25.8184C35.208 26.3194 34.8694 26.7347 34.6075 26.0147C33.9928 24.1766 33.7099 23.4032 32.253 22.4145C30.8234 21.4443 29.8066 19.8778 29.8066 18.023C29.8066 15.1709 32.1188 12.8588 34.9709 12.8588Z" fill="#00FF47"/>
<path fill-rule="evenodd" clip-rule="evenodd" d="M18.0288 40.0596C20.881 40.0596 23.1931 37.7475 23.1931 34.8954C23.1931 33.2859 22.2808 31.8915 21.1634 30.9017C19.6051 29.5216 19.2698 29.9525 18.4571 27.1001C18.2659 26.5991 17.9274 26.1836 17.6656 26.9037C17.0507 28.7417 16.768 29.5151 15.3109 30.504C13.8813 31.4741 12.8647 33.0407 12.8647 34.8954C12.8647 37.7475 15.1768 40.0596 18.0288 40.0596Z" fill="#00FF47"/>
<path fill-rule="evenodd" clip-rule="evenodd" d="M34.9712 29.8499C37.8142 29.8499 40.119 32.1547 40.119 34.9978C40.119 37.8408 37.8142 40.1455 34.9712 40.1455C32.1281 40.1455 29.8234 37.8408 29.8234 34.9978C29.8234 32.3936 29.3107 31.0229 27.7594 28.9545C26.1696 27.2056 24.4662 25.3643 22.4739 24.0649C20.617 23.1646 20.1168 23.1506 18.029 23.1506C15.186 23.1506 12.8813 20.8458 12.8813 18.0027C12.8813 15.1597 15.186 12.855 18.029 12.855C20.8721 12.855 23.1769 15.1597 23.1769 18.0027C23.1769 20.4223 23.0391 20.7494 24.4048 23.048C25.9639 24.9703 27.3572 26.4285 29.2443 28.072C31.4983 29.4762 32.1814 29.8499 34.9712 29.8499Z" fill="#00FF47"/>
</svg>
