<svg width="29" height="29" viewBox="0 0 29 29" fill="none" xmlns="http://www.w3.org/2000/svg">
<path fill-rule="evenodd" clip-rule="evenodd" d="M22.9709 17.8497C25.814 17.8497 28.1188 20.1545 28.1188 22.9975C28.1188 25.8406 25.814 28.1453 22.9709 28.1453C20.1278 28.1453 17.8232 25.8406 17.8232 22.9975C17.8232 20.3934 17.3104 19.0227 15.7592 16.9542C14.1693 15.2054 12.4659 13.364 10.4736 12.0646C8.61676 11.1644 8.11651 11.1504 6.02878 11.1504C3.18574 11.1504 0.881104 8.8456 0.881104 6.0025C0.881104 3.15946 3.18574 0.854777 6.02878 0.854777C8.87188 0.854777 11.1767 3.15946 11.1767 6.0025C11.1767 8.42205 11.0388 8.7492 12.4046 11.0477C13.9637 12.97 15.357 14.4283 17.2441 16.0718C19.4981 17.4759 20.1812 17.8497 22.9709 17.8497Z" fill="#00FF47"/>
</svg>
