<svg width="405" height="242" viewBox="0 0 405 242" fill="none" xmlns="http://www.w3.org/2000/svg">
<path fill-rule="evenodd" clip-rule="evenodd" d="M0.829403 36.2236C0.592985 17.7132 15.3111 2.51719 33.7034 2.28228C44.0815 2.14973 53.1497 7.95567 59.6247 15.1265C68.6552 25.1256 65.903 27.3371 84.3657 32.3777C87.6122 33.5763 90.3183 35.7396 85.6968 37.499C73.8947 41.6397 68.9308 43.5389 62.6757 53.0757C56.5376 62.4342 46.5205 69.1618 34.5596 69.3146C16.1673 69.5495 1.06582 54.7341 0.829403 36.2236Z" fill="black"/>
<path fill-rule="evenodd" clip-rule="evenodd" d="M177.641 143.938C177.405 125.427 162.303 110.612 143.912 110.847C133.533 110.979 124.616 117.015 118.326 124.349C109.555 134.575 112.362 136.716 94.035 142.225C90.8202 143.508 88.1692 145.739 92.8341 147.379C104.738 151.218 109.749 152.989 116.246 162.364C122.621 171.562 132.807 178.031 144.768 177.878C163.159 177.643 177.878 162.447 177.641 143.938Z" fill="black"/>
<path fill-rule="evenodd" clip-rule="evenodd" d="M110.399 34.8227C110.163 16.3713 124.835 1.22329 143.169 0.989128C161.502 0.754967 176.555 15.5233 176.791 33.9747C177.027 52.4265 162.356 67.5734 144.022 67.8076C127.229 68.0221 118.432 71.4628 105.222 81.7009C94.0763 92.1631 82.3434 103.37 74.1292 116.407C68.4778 128.532 68.429 131.78 68.6021 145.329C68.8378 163.781 54.1661 178.928 35.8321 179.162C17.4984 179.396 2.4454 164.629 2.20974 146.177C1.97407 127.726 16.645 112.578 34.9787 112.343C50.5814 112.144 52.7025 113.012 67.4116 103.959C79.6785 93.6819 88.9667 84.5192 99.4084 72.1364C108.277 57.3921 110.63 52.9282 110.399 34.8227Z" fill="black"/>
<path d="M294.68 128.94H219.62C220.1 135.9 223.28 141.54 229.16 145.86C235.04 150.06 241.76 152.16 249.32 152.16C261.32 152.16 270.44 148.38 276.68 140.82L288.2 153.42C277.88 164.1 264.44 169.44 247.88 169.44C234.44 169.44 222.98 165 213.5 156.12C204.14 147.12 199.46 135.12 199.46 120.12C199.46 105 204.26 93 213.86 84.12C223.46 75.24 234.74 70.8 247.7 70.8C260.78 70.8 271.88 74.76 281 82.68C290.12 90.48 294.68 101.28 294.68 115.08V128.94ZM219.62 113.1H274.52C274.52 105.06 272 98.88 266.96 94.56C261.92 90.24 255.68 88.08 248.24 88.08C240.92 88.08 234.32 90.36 228.44 94.92C222.56 99.36 219.62 105.42 219.62 113.1ZM396.95 128.94H321.89C322.37 135.9 325.55 141.54 331.43 145.86C337.31 150.06 344.03 152.16 351.59 152.16C363.59 152.16 372.71 148.38 378.95 140.82L390.47 153.42C380.15 164.1 366.71 169.44 350.15 169.44C336.71 169.44 325.25 165 315.77 156.12C306.41 147.12 301.73 135.12 301.73 120.12C301.73 105 306.53 93 316.13 84.12C325.73 75.24 337.01 70.8 349.97 70.8C363.05 70.8 374.15 74.76 383.27 82.68C392.39 90.48 396.95 101.28 396.95 115.08V128.94ZM321.89 113.1H376.79C376.79 105.06 374.27 98.88 369.23 94.56C364.19 90.24 357.95 88.08 350.51 88.08C343.19 88.08 336.59 90.36 330.71 94.92C324.83 99.36 321.89 105.42 321.89 113.1Z" fill="black"/>
</svg>
